<mxfile host="65bd71144e">
    <diagram id="ux_xI_M9KobPVxHOVfLH" name="Halaman-1">
        <mxGraphModel dx="434" dy="270" grid="1" gridSize="10" guides="1" tooltips="1" connect="1" arrows="1" fold="1" page="1" pageScale="1" pageWidth="1200" pageHeight="1100" math="0" shadow="0">
            <root>
                <mxCell id="0"/>
                <mxCell id="1" parent="0"/>
                <mxCell id="158" value="" style="group" parent="1" vertex="1" connectable="0">
                    <mxGeometry x="770" y="430" width="560" height="320" as="geometry"/>
                </mxCell>
                <mxCell id="26" value="videos" style="rounded=0;whiteSpace=wrap;html=1;fontFamily=Courier New;" parent="158" vertex="1">
                    <mxGeometry x="230" y="105" width="120" height="60" as="geometry"/>
                </mxCell>
                <mxCell id="37" style="edgeStyle=none;html=1;exitX=1;exitY=0;exitDx=0;exitDy=0;entryX=0;entryY=0.75;entryDx=0;entryDy=0;fontFamily=Courier New;endArrow=none;endFill=0;" parent="158" source="27" target="26" edge="1">
                    <mxGeometry relative="1" as="geometry"/>
                </mxCell>
                <mxCell id="27" value="&lt;font face=&quot;Courier New&quot;&gt;&lt;u&gt;&lt;b&gt;id&lt;/b&gt;&lt;/u&gt;&lt;/font&gt;" style="ellipse;whiteSpace=wrap;html=1;" parent="158" vertex="1">
                    <mxGeometry x="40" y="200" width="120" height="50" as="geometry"/>
                </mxCell>
                <mxCell id="36" style="edgeStyle=none;html=1;exitX=1;exitY=0.5;exitDx=0;exitDy=0;entryX=0;entryY=0.5;entryDx=0;entryDy=0;fontFamily=Courier New;endArrow=none;endFill=0;" parent="158" source="28" target="26" edge="1">
                    <mxGeometry relative="1" as="geometry"/>
                </mxCell>
                <mxCell id="28" value="&lt;font face=&quot;Courier New&quot;&gt;&lt;u&gt;&lt;b&gt;class_ref&lt;/b&gt;&lt;/u&gt;&lt;/font&gt;" style="ellipse;whiteSpace=wrap;html=1;" parent="158" vertex="1">
                    <mxGeometry y="140" width="120" height="50" as="geometry"/>
                </mxCell>
                <mxCell id="38" style="edgeStyle=none;html=1;exitX=0.5;exitY=0;exitDx=0;exitDy=0;fontFamily=Courier New;endArrow=none;endFill=0;entryX=0;entryY=1;entryDx=0;entryDy=0;" parent="158" source="29" target="26" edge="1">
                    <mxGeometry relative="1" as="geometry">
                        <mxPoint x="230" y="170" as="targetPoint"/>
                    </mxGeometry>
                </mxCell>
                <mxCell id="29" value="&lt;font face=&quot;Courier New&quot;&gt;&lt;u&gt;&lt;b&gt;author&lt;/b&gt;&lt;/u&gt;&lt;/font&gt;" style="ellipse;whiteSpace=wrap;html=1;" parent="158" vertex="1">
                    <mxGeometry x="140" y="240" width="120" height="50" as="geometry"/>
                </mxCell>
                <mxCell id="39" style="edgeStyle=none;html=1;exitX=0.5;exitY=0;exitDx=0;exitDy=0;entryX=0.25;entryY=1;entryDx=0;entryDy=0;fontFamily=Courier New;endArrow=none;endFill=0;" parent="158" source="30" target="26" edge="1">
                    <mxGeometry relative="1" as="geometry"/>
                </mxCell>
                <mxCell id="30" value="&lt;font face=&quot;Courier New&quot;&gt;thumbnail&lt;/font&gt;" style="ellipse;whiteSpace=wrap;html=1;" parent="158" vertex="1">
                    <mxGeometry x="260" y="270" width="120" height="50" as="geometry"/>
                </mxCell>
                <mxCell id="44" style="edgeStyle=none;html=1;exitX=0.5;exitY=1;exitDx=0;exitDy=0;entryX=1;entryY=0.5;entryDx=0;entryDy=0;fontFamily=Courier New;endArrow=none;endFill=0;" parent="158" source="31" target="26" edge="1">
                    <mxGeometry relative="1" as="geometry"/>
                </mxCell>
                <mxCell id="31" value="&lt;font face=&quot;Courier New&quot;&gt;title&lt;/font&gt;" style="ellipse;whiteSpace=wrap;html=1;" parent="158" vertex="1">
                    <mxGeometry x="340" width="120" height="50" as="geometry"/>
                </mxCell>
                <mxCell id="43" style="edgeStyle=none;html=1;exitX=0;exitY=1;exitDx=0;exitDy=0;entryX=1;entryY=0.75;entryDx=0;entryDy=0;fontFamily=Courier New;endArrow=none;endFill=0;" parent="158" source="32" target="26" edge="1">
                    <mxGeometry relative="1" as="geometry"/>
                </mxCell>
                <mxCell id="32" value="&lt;font face=&quot;Courier New&quot;&gt;desc&lt;/font&gt;" style="ellipse;whiteSpace=wrap;html=1;" parent="158" vertex="1">
                    <mxGeometry x="420" y="50" width="120" height="50" as="geometry"/>
                </mxCell>
                <mxCell id="42" style="edgeStyle=none;html=1;exitX=0;exitY=0.5;exitDx=0;exitDy=0;entryX=1;entryY=1;entryDx=0;entryDy=0;fontFamily=Courier New;endArrow=none;endFill=0;" parent="158" source="33" target="26" edge="1">
                    <mxGeometry relative="1" as="geometry"/>
                </mxCell>
                <mxCell id="33" value="&lt;font face=&quot;Courier New&quot;&gt;video_path&lt;/font&gt;" style="ellipse;whiteSpace=wrap;html=1;" parent="158" vertex="1">
                    <mxGeometry x="440" y="110" width="120" height="50" as="geometry"/>
                </mxCell>
                <mxCell id="41" style="edgeStyle=none;html=1;exitX=0;exitY=0.5;exitDx=0;exitDy=0;entryX=0.75;entryY=1;entryDx=0;entryDy=0;fontFamily=Courier New;endArrow=none;endFill=0;" parent="158" source="34" target="26" edge="1">
                    <mxGeometry relative="1" as="geometry"/>
                </mxCell>
                <mxCell id="34" value="&lt;font face=&quot;Courier New&quot;&gt;created_time&lt;/font&gt;" style="ellipse;whiteSpace=wrap;html=1;" parent="158" vertex="1">
                    <mxGeometry x="410" y="170" width="120" height="50" as="geometry"/>
                </mxCell>
                <mxCell id="40" style="edgeStyle=none;html=1;exitX=0;exitY=0;exitDx=0;exitDy=0;entryX=0.5;entryY=1;entryDx=0;entryDy=0;fontFamily=Courier New;endArrow=none;endFill=0;" parent="158" source="35" target="26" edge="1">
                    <mxGeometry relative="1" as="geometry"/>
                </mxCell>
                <mxCell id="35" value="&lt;font face=&quot;Courier New&quot;&gt;updated_time&lt;/font&gt;" style="ellipse;whiteSpace=wrap;html=1;" parent="158" vertex="1">
                    <mxGeometry x="360" y="230" width="120" height="50" as="geometry"/>
                </mxCell>
                <mxCell id="155" value="" style="group" parent="158" vertex="1" connectable="0">
                    <mxGeometry x="-410" y="-125" width="320" height="180" as="geometry"/>
                </mxCell>
                <mxCell id="138" value="quiz_answer" style="rounded=0;whiteSpace=wrap;html=1;fontFamily=Courier New;" parent="155" vertex="1">
                    <mxGeometry x="185" y="95" width="120" height="60" as="geometry"/>
                </mxCell>
                <mxCell id="143" style="html=1;exitX=1;exitY=0.5;exitDx=0;exitDy=0;entryX=0;entryY=0.75;entryDx=0;entryDy=0;fontFamily=Courier New;endArrow=none;endFill=0;" parent="155" source="139" target="138" edge="1">
                    <mxGeometry relative="1" as="geometry"/>
                </mxCell>
                <mxCell id="139" value="&lt;font face=&quot;Courier New&quot;&gt;&lt;b&gt;id&lt;/b&gt;&lt;/font&gt;" style="ellipse;whiteSpace=wrap;html=1;fontStyle=4" parent="155" vertex="1">
                    <mxGeometry x="15" y="130" width="120" height="50" as="geometry"/>
                </mxCell>
                <mxCell id="144" style="edgeStyle=none;html=1;exitX=1;exitY=0.5;exitDx=0;exitDy=0;entryX=0;entryY=0.5;entryDx=0;entryDy=0;fontFamily=Courier New;endArrow=none;endFill=0;" parent="155" source="140" target="138" edge="1">
                    <mxGeometry relative="1" as="geometry"/>
                </mxCell>
                <mxCell id="140" value="&lt;font face=&quot;Courier New&quot;&gt;total_quiz&lt;/font&gt;" style="ellipse;whiteSpace=wrap;html=1;fontStyle=0" parent="155" vertex="1">
                    <mxGeometry y="70" width="120" height="50" as="geometry"/>
                </mxCell>
                <mxCell id="145" style="edgeStyle=none;html=1;exitX=1;exitY=1;exitDx=0;exitDy=0;entryX=0.25;entryY=0;entryDx=0;entryDy=0;fontFamily=Courier New;endArrow=none;endFill=0;" parent="155" source="141" target="138" edge="1">
                    <mxGeometry relative="1" as="geometry"/>
                </mxCell>
                <mxCell id="141" value="&lt;font face=&quot;Courier New&quot;&gt;answer&lt;/font&gt;" style="ellipse;whiteSpace=wrap;html=1;fontStyle=0" parent="155" vertex="1">
                    <mxGeometry x="80" y="20" width="120" height="50" as="geometry"/>
                </mxCell>
                <mxCell id="146" style="edgeStyle=none;html=1;exitX=0.5;exitY=1;exitDx=0;exitDy=0;entryX=0.5;entryY=0;entryDx=0;entryDy=0;fontFamily=Courier New;endArrow=none;endFill=0;" parent="155" source="142" target="138" edge="1">
                    <mxGeometry relative="1" as="geometry"/>
                </mxCell>
                <mxCell id="142" value="&lt;font face=&quot;Courier New&quot;&gt;&lt;b&gt;user_ref&lt;/b&gt;&lt;/font&gt;" style="ellipse;whiteSpace=wrap;html=1;fontStyle=4" parent="155" vertex="1">
                    <mxGeometry x="200" width="120" height="50" as="geometry"/>
                </mxCell>
                <mxCell id="147" style="edgeStyle=orthogonalEdgeStyle;html=1;exitX=0.25;exitY=0;exitDx=0;exitDy=0;entryX=1;entryY=0.75;entryDx=0;entryDy=0;fontFamily=Courier New;endArrow=ERmany;endFill=0;strokeWidth=2;" parent="158" source="26" target="138" edge="1">
                    <mxGeometry relative="1" as="geometry"/>
                </mxCell>
                <mxCell id="72" style="edgeStyle=orthogonalEdgeStyle;html=1;exitX=0.75;exitY=0;exitDx=0;exitDy=0;entryX=0;entryY=0.75;entryDx=0;entryDy=0;fontFamily=Courier New;endArrow=ERmany;endFill=0;strokeWidth=2;" parent="1" source="26" target="45" edge="1">
                    <mxGeometry relative="1" as="geometry">
                        <Array as="points">
                            <mxPoint x="1090" y="390"/>
                            <mxPoint x="1180" y="390"/>
                            <mxPoint x="1180" y="240"/>
                        </Array>
                    </mxGeometry>
                </mxCell>
                <mxCell id="154" style="edgeStyle=orthogonalEdgeStyle;html=1;exitX=0.5;exitY=1;exitDx=0;exitDy=0;entryX=0.5;entryY=0;entryDx=0;entryDy=0;fontFamily=Courier New;endArrow=none;endFill=0;strokeWidth=2;startArrow=ERmany;startFill=0;" parent="1" source="99" target="26" edge="1">
                    <mxGeometry relative="1" as="geometry">
                        <Array as="points">
                            <mxPoint x="935" y="410"/>
                            <mxPoint x="1060" y="410"/>
                        </Array>
                    </mxGeometry>
                </mxCell>
                <mxCell id="165" value="" style="group" parent="1" vertex="1" connectable="0">
                    <mxGeometry x="775" y="780" width="425" height="170" as="geometry"/>
                </mxCell>
                <mxCell id="111" value="p_discussion" style="rounded=0;whiteSpace=wrap;html=1;fontFamily=Courier New;" parent="165" vertex="1">
                    <mxGeometry x="154" y="110" width="120" height="60" as="geometry"/>
                </mxCell>
                <mxCell id="160" style="html=1;exitX=1;exitY=1;exitDx=0;exitDy=0;fontFamily=Courier New;endArrow=none;endFill=0;" parent="165" source="113" target="111" edge="1">
                    <mxGeometry relative="1" as="geometry"/>
                </mxCell>
                <mxCell id="113" value="&lt;font face=&quot;Courier New&quot;&gt;&lt;b&gt;id&lt;/b&gt;&lt;/font&gt;" style="ellipse;whiteSpace=wrap;html=1;fontStyle=4" parent="165" vertex="1">
                    <mxGeometry y="90" width="120" height="50" as="geometry"/>
                </mxCell>
                <mxCell id="161" style="edgeStyle=none;html=1;exitX=1;exitY=1;exitDx=0;exitDy=0;entryX=0;entryY=0;entryDx=0;entryDy=0;fontFamily=Courier New;endArrow=none;endFill=0;" parent="165" source="115" target="111" edge="1">
                    <mxGeometry relative="1" as="geometry"/>
                </mxCell>
                <mxCell id="115" value="&lt;font face=&quot;Courier New&quot;&gt;&lt;b&gt;author&lt;/b&gt;&lt;/font&gt;" style="ellipse;whiteSpace=wrap;html=1;fontStyle=4" parent="165" vertex="1">
                    <mxGeometry x="33" y="30" width="120" height="50" as="geometry"/>
                </mxCell>
                <mxCell id="162" style="edgeStyle=none;html=1;exitX=0.5;exitY=1;exitDx=0;exitDy=0;fontFamily=Courier New;endArrow=none;endFill=0;" parent="165" source="117" target="111" edge="1">
                    <mxGeometry relative="1" as="geometry"/>
                </mxCell>
                <mxCell id="117" value="&lt;font face=&quot;Courier New&quot;&gt;message&lt;/font&gt;" style="ellipse;whiteSpace=wrap;html=1;" parent="165" vertex="1">
                    <mxGeometry x="153" width="120" height="50" as="geometry"/>
                </mxCell>
                <mxCell id="164" style="edgeStyle=none;html=1;exitX=0;exitY=1;exitDx=0;exitDy=0;entryX=1;entryY=0.5;entryDx=0;entryDy=0;fontFamily=Courier New;endArrow=none;endFill=0;" parent="165" source="119" target="111" edge="1">
                    <mxGeometry relative="1" as="geometry"/>
                </mxCell>
                <mxCell id="119" value="&lt;font face=&quot;Courier New&quot;&gt;updated_time&lt;/font&gt;" style="ellipse;whiteSpace=wrap;html=1;" parent="165" vertex="1">
                    <mxGeometry x="305" y="90" width="120" height="50" as="geometry"/>
                </mxCell>
                <mxCell id="163" style="edgeStyle=none;html=1;exitX=0;exitY=1;exitDx=0;exitDy=0;entryX=1;entryY=0;entryDx=0;entryDy=0;fontFamily=Courier New;endArrow=none;endFill=0;" parent="165" source="121" target="111" edge="1">
                    <mxGeometry relative="1" as="geometry"/>
                </mxCell>
                <mxCell id="121" value="&lt;font face=&quot;Courier New&quot;&gt;created_time&lt;/font&gt;" style="ellipse;whiteSpace=wrap;html=1;" parent="165" vertex="1">
                    <mxGeometry x="274" y="30" width="120" height="50" as="geometry"/>
                </mxCell>
                <mxCell id="166" value="" style="group" parent="1" vertex="1" connectable="0">
                    <mxGeometry x="480" y="1020" width="475" height="200" as="geometry"/>
                </mxCell>
                <mxCell id="122" value="posts" style="rounded=0;whiteSpace=wrap;html=1;fontFamily=Courier New;" parent="166" vertex="1">
                    <mxGeometry x="165" y="50" width="120" height="60" as="geometry"/>
                </mxCell>
                <mxCell id="131" style="edgeStyle=none;html=1;exitX=1;exitY=0.5;exitDx=0;exitDy=0;entryX=0;entryY=0.75;entryDx=0;entryDy=0;fontFamily=Courier New;endArrow=none;endFill=0;" parent="166" source="123" target="122" edge="1">
                    <mxGeometry relative="1" as="geometry"/>
                </mxCell>
                <mxCell id="123" value="&lt;font face=&quot;Courier New&quot;&gt;&lt;b&gt;id&lt;/b&gt;&lt;/font&gt;" style="ellipse;whiteSpace=wrap;html=1;fontStyle=4" parent="166" vertex="1">
                    <mxGeometry y="50" width="120" height="50" as="geometry"/>
                </mxCell>
                <mxCell id="132" style="edgeStyle=none;html=1;exitX=1;exitY=0.5;exitDx=0;exitDy=0;entryX=0;entryY=1;entryDx=0;entryDy=0;fontFamily=Courier New;endArrow=none;endFill=0;" parent="166" source="124" target="122" edge="1">
                    <mxGeometry relative="1" as="geometry"/>
                </mxCell>
                <mxCell id="124" value="&lt;font face=&quot;Courier New&quot;&gt;&lt;b&gt;author&lt;/b&gt;&lt;/font&gt;" style="ellipse;whiteSpace=wrap;html=1;fontStyle=4" parent="166" vertex="1">
                    <mxGeometry x="30" y="105" width="120" height="50" as="geometry"/>
                </mxCell>
                <mxCell id="133" style="edgeStyle=none;html=1;entryX=0.25;entryY=1;entryDx=0;entryDy=0;fontFamily=Courier New;endArrow=none;endFill=0;" parent="166" target="122" edge="1">
                    <mxGeometry relative="1" as="geometry">
                        <mxPoint x="170" y="150" as="sourcePoint"/>
                    </mxGeometry>
                </mxCell>
                <mxCell id="125" value="&lt;font face=&quot;Courier New&quot;&gt;&lt;b&gt;video_ref&lt;/b&gt;&lt;/font&gt;" style="ellipse;whiteSpace=wrap;html=1;fontStyle=4" parent="166" vertex="1">
                    <mxGeometry x="110" y="150" width="120" height="50" as="geometry"/>
                </mxCell>
                <mxCell id="134" style="edgeStyle=none;html=1;exitX=0;exitY=0;exitDx=0;exitDy=0;fontFamily=Courier New;endArrow=none;endFill=0;" parent="166" source="126" edge="1">
                    <mxGeometry relative="1" as="geometry">
                        <mxPoint x="225" y="110" as="targetPoint"/>
                    </mxGeometry>
                </mxCell>
                <mxCell id="126" value="&lt;font face=&quot;Courier New&quot;&gt;title&lt;/font&gt;" style="ellipse;whiteSpace=wrap;html=1;" parent="166" vertex="1">
                    <mxGeometry x="238" y="150" width="120" height="50" as="geometry"/>
                </mxCell>
                <mxCell id="135" style="edgeStyle=none;html=1;exitX=0;exitY=0.5;exitDx=0;exitDy=0;entryX=0.75;entryY=1;entryDx=0;entryDy=0;fontFamily=Courier New;endArrow=none;endFill=0;" parent="166" source="127" target="122" edge="1">
                    <mxGeometry relative="1" as="geometry"/>
                </mxCell>
                <mxCell id="127" value="&lt;font face=&quot;Courier New&quot;&gt;desc&lt;/font&gt;" style="ellipse;whiteSpace=wrap;html=1;" parent="166" vertex="1">
                    <mxGeometry x="320" y="105" width="120" height="50" as="geometry"/>
                </mxCell>
                <mxCell id="136" style="edgeStyle=none;html=1;exitX=0;exitY=0.5;exitDx=0;exitDy=0;entryX=1;entryY=0.75;entryDx=0;entryDy=0;fontFamily=Courier New;endArrow=none;endFill=0;" parent="166" source="128" target="122" edge="1">
                    <mxGeometry relative="1" as="geometry"/>
                </mxCell>
                <mxCell id="128" value="&lt;font face=&quot;Courier New&quot;&gt;created_time&lt;/font&gt;" style="ellipse;whiteSpace=wrap;html=1;" parent="166" vertex="1">
                    <mxGeometry x="355" y="50" width="120" height="50" as="geometry"/>
                </mxCell>
                <mxCell id="137" style="edgeStyle=none;html=1;exitX=0;exitY=1;exitDx=0;exitDy=0;entryX=1;entryY=0.5;entryDx=0;entryDy=0;fontFamily=Courier New;endArrow=none;endFill=0;" parent="166" source="130" target="122" edge="1">
                    <mxGeometry relative="1" as="geometry"/>
                </mxCell>
                <mxCell id="130" value="&lt;font face=&quot;Courier New&quot;&gt;updated_time&lt;/font&gt;" style="ellipse;whiteSpace=wrap;html=1;" parent="166" vertex="1">
                    <mxGeometry x="320" width="120" height="50" as="geometry"/>
                </mxCell>
                <mxCell id="167" style="edgeStyle=orthogonalEdgeStyle;html=1;exitX=0.75;exitY=0;exitDx=0;exitDy=0;entryX=0.5;entryY=1;entryDx=0;entryDy=0;fontFamily=Courier New;endArrow=ERmany;endFill=0;strokeWidth=2;" parent="1" source="122" target="111" edge="1">
                    <mxGeometry relative="1" as="geometry">
                        <Array as="points">
                            <mxPoint x="735" y="1010"/>
                            <mxPoint x="990" y="1010"/>
                            <mxPoint x="990" y="950"/>
                        </Array>
                    </mxGeometry>
                </mxCell>
                <mxCell id="170" value="" style="group" parent="1" vertex="1" connectable="0">
                    <mxGeometry x="20" y="20" width="570" height="240" as="geometry"/>
                </mxCell>
                <mxCell id="2" value="&lt;font face=&quot;Courier New&quot;&gt;&lt;u&gt;&lt;b&gt;uid&lt;/b&gt;&lt;/u&gt;&lt;/font&gt;" style="ellipse;whiteSpace=wrap;html=1;" parent="170" vertex="1">
                    <mxGeometry x="40" y="40" width="120" height="50" as="geometry"/>
                </mxCell>
                <mxCell id="20" style="edgeStyle=none;html=1;exitX=0.25;exitY=0;exitDx=0;exitDy=0;entryX=1;entryY=1;entryDx=0;entryDy=0;fontFamily=Courier New;endArrow=none;endFill=0;" parent="170" source="3" target="2" edge="1">
                    <mxGeometry relative="1" as="geometry"/>
                </mxCell>
                <mxCell id="3" value="users" style="rounded=0;whiteSpace=wrap;html=1;fontFamily=Courier New;" parent="170" vertex="1">
                    <mxGeometry x="180" y="180" width="120" height="60" as="geometry"/>
                </mxCell>
                <mxCell id="4" value="&lt;font face=&quot;Courier New&quot;&gt;email&lt;/font&gt;" style="ellipse;whiteSpace=wrap;html=1;" parent="170" vertex="1">
                    <mxGeometry x="160" y="10" width="120" height="50" as="geometry"/>
                </mxCell>
                <mxCell id="21" style="edgeStyle=none;html=1;exitX=0.5;exitY=0;exitDx=0;exitDy=0;entryX=0.5;entryY=1;entryDx=0;entryDy=0;fontFamily=Courier New;endArrow=none;endFill=0;" parent="170" source="3" target="4" edge="1">
                    <mxGeometry relative="1" as="geometry"/>
                </mxCell>
                <mxCell id="14" value="&lt;font face=&quot;Courier New&quot;&gt;display_name&lt;/font&gt;" style="ellipse;whiteSpace=wrap;html=1;" parent="170" vertex="1">
                    <mxGeometry x="290" width="120" height="50" as="geometry"/>
                </mxCell>
                <mxCell id="22" style="edgeStyle=none;html=1;entryX=0.5;entryY=1;entryDx=0;entryDy=0;fontFamily=Courier New;endArrow=none;endFill=0;exitX=0.75;exitY=0;exitDx=0;exitDy=0;" parent="170" source="3" target="14" edge="1">
                    <mxGeometry relative="1" as="geometry">
                        <mxPoint x="270" y="180" as="sourcePoint"/>
                    </mxGeometry>
                </mxCell>
                <mxCell id="15" value="&lt;font face=&quot;Courier New&quot;&gt;photo_url&lt;/font&gt;" style="ellipse;whiteSpace=wrap;html=1;" parent="170" vertex="1">
                    <mxGeometry x="380" y="50" width="120" height="50" as="geometry"/>
                </mxCell>
                <mxCell id="23" style="edgeStyle=none;html=1;exitX=1;exitY=0;exitDx=0;exitDy=0;entryX=0;entryY=1;entryDx=0;entryDy=0;fontFamily=Courier New;endArrow=none;endFill=0;" parent="170" source="3" target="15" edge="1">
                    <mxGeometry relative="1" as="geometry"/>
                </mxCell>
                <mxCell id="16" value="&lt;font face=&quot;Courier New&quot;&gt;created_time&lt;/font&gt;" style="ellipse;whiteSpace=wrap;html=1;" parent="170" vertex="1">
                    <mxGeometry x="450" y="110" width="120" height="50" as="geometry"/>
                </mxCell>
                <mxCell id="24" style="edgeStyle=none;html=1;exitX=1;exitY=0.25;exitDx=0;exitDy=0;entryX=0;entryY=0.5;entryDx=0;entryDy=0;fontFamily=Courier New;endArrow=none;endFill=0;" parent="170" source="3" target="16" edge="1">
                    <mxGeometry relative="1" as="geometry"/>
                </mxCell>
                <mxCell id="17" value="&lt;font face=&quot;Courier New&quot;&gt;phone_number&lt;/font&gt;" style="ellipse;whiteSpace=wrap;html=1;" parent="170" vertex="1">
                    <mxGeometry x="390" y="170" width="120" height="50" as="geometry"/>
                </mxCell>
                <mxCell id="25" style="edgeStyle=none;html=1;exitX=1;exitY=0.5;exitDx=0;exitDy=0;entryX=0;entryY=0.5;entryDx=0;entryDy=0;fontFamily=Courier New;endArrow=none;endFill=0;" parent="170" source="3" target="17" edge="1">
                    <mxGeometry relative="1" as="geometry"/>
                </mxCell>
                <mxCell id="18" value="&lt;font face=&quot;Courier New&quot;&gt;role&lt;/font&gt;" style="ellipse;whiteSpace=wrap;html=1;" parent="170" vertex="1">
                    <mxGeometry y="110" width="120" height="50" as="geometry"/>
                </mxCell>
                <mxCell id="19" style="edgeStyle=none;html=1;entryX=1;entryY=0.5;entryDx=0;entryDy=0;fontFamily=Courier New;endArrow=none;endFill=0;" parent="170" source="3" target="18" edge="1">
                    <mxGeometry relative="1" as="geometry"/>
                </mxCell>
                <mxCell id="172" style="edgeStyle=orthogonalEdgeStyle;html=1;exitX=0;exitY=1;exitDx=0;exitDy=0;entryX=0.25;entryY=0;entryDx=0;entryDy=0;fontFamily=Courier New;endArrow=ERmany;endFill=0;strokeWidth=2;startArrow=ERmany;startFill=0;" parent="1" source="3" target="73" edge="1">
                    <mxGeometry relative="1" as="geometry">
                        <Array as="points">
                            <mxPoint x="200" y="680"/>
                            <mxPoint x="284" y="680"/>
                        </Array>
                    </mxGeometry>
                </mxCell>
                <mxCell id="174" value="" style="group" parent="1" vertex="1" connectable="0">
                    <mxGeometry x="820" y="10" width="810" height="430" as="geometry"/>
                </mxCell>
                <mxCell id="45" value="quiz" style="rounded=0;whiteSpace=wrap;html=1;fontFamily=Courier New;" parent="174" vertex="1">
                    <mxGeometry x="480" y="185" width="120" height="60" as="geometry"/>
                </mxCell>
                <mxCell id="46" value="&lt;font face=&quot;Courier New&quot;&gt;&lt;u&gt;&lt;b&gt;id&lt;/b&gt;&lt;/u&gt;&lt;/font&gt;" style="ellipse;whiteSpace=wrap;html=1;" parent="174" vertex="1">
                    <mxGeometry x="203.5" y="10" width="120" height="50" as="geometry"/>
                </mxCell>
                <mxCell id="60" style="edgeStyle=none;html=1;exitX=0;exitY=0;exitDx=0;exitDy=0;entryX=1;entryY=1;entryDx=0;entryDy=0;fontFamily=Courier New;endArrow=none;endFill=0;" parent="174" source="45" target="46" edge="1">
                    <mxGeometry relative="1" as="geometry"/>
                </mxCell>
                <mxCell id="61" style="edgeStyle=none;html=1;exitX=0.5;exitY=1;exitDx=0;exitDy=0;entryX=0.25;entryY=0;entryDx=0;entryDy=0;fontFamily=Courier New;endArrow=none;endFill=0;" parent="174" source="47" target="45" edge="1">
                    <mxGeometry relative="1" as="geometry"/>
                </mxCell>
                <mxCell id="47" value="&lt;font face=&quot;Courier New&quot;&gt;question&lt;/font&gt;" style="ellipse;whiteSpace=wrap;html=1;" parent="174" vertex="1">
                    <mxGeometry x="340" width="120" height="50" as="geometry"/>
                </mxCell>
                <mxCell id="62" style="edgeStyle=none;html=1;exitX=0.5;exitY=1;exitDx=0;exitDy=0;entryX=0.5;entryY=0;entryDx=0;entryDy=0;fontFamily=Courier New;endArrow=none;endFill=0;" parent="174" source="48" target="45" edge="1">
                    <mxGeometry relative="1" as="geometry"/>
                </mxCell>
                <mxCell id="48" value="&lt;font face=&quot;Courier New&quot;&gt;created_time&lt;/font&gt;" style="ellipse;whiteSpace=wrap;html=1;" parent="174" vertex="1">
                    <mxGeometry x="470" y="10" width="120" height="50" as="geometry"/>
                </mxCell>
                <mxCell id="63" style="edgeStyle=none;html=1;exitX=0;exitY=1;exitDx=0;exitDy=0;fontFamily=Courier New;endArrow=none;endFill=0;" parent="174" source="49" target="45" edge="1">
                    <mxGeometry relative="1" as="geometry"/>
                </mxCell>
                <mxCell id="49" value="&lt;font face=&quot;Courier New&quot;&gt;updated_time&lt;/font&gt;" style="ellipse;whiteSpace=wrap;html=1;" parent="174" vertex="1">
                    <mxGeometry x="590" y="60" width="120" height="50" as="geometry"/>
                </mxCell>
                <mxCell id="64" style="edgeStyle=none;html=1;exitX=0;exitY=0.5;exitDx=0;exitDy=0;entryX=1;entryY=0;entryDx=0;entryDy=0;fontFamily=Courier New;endArrow=none;endFill=0;" parent="174" source="50" target="45" edge="1">
                    <mxGeometry relative="1" as="geometry"/>
                </mxCell>
                <mxCell id="50" value="&lt;font face=&quot;Courier New&quot;&gt;quiz_type&lt;/font&gt;" style="ellipse;whiteSpace=wrap;html=1;" parent="174" vertex="1">
                    <mxGeometry x="660" y="125" width="120" height="50" as="geometry"/>
                </mxCell>
                <mxCell id="65" style="edgeStyle=none;html=1;exitX=0;exitY=0.5;exitDx=0;exitDy=0;entryX=1;entryY=0.25;entryDx=0;entryDy=0;fontFamily=Courier New;endArrow=none;endFill=0;" parent="174" source="51" target="45" edge="1">
                    <mxGeometry relative="1" as="geometry"/>
                </mxCell>
                <mxCell id="51" value="&lt;font face=&quot;Courier New&quot;&gt;answer_a&lt;/font&gt;" style="ellipse;whiteSpace=wrap;html=1;" parent="174" vertex="1">
                    <mxGeometry x="690" y="195" width="120" height="50" as="geometry"/>
                </mxCell>
                <mxCell id="66" style="edgeStyle=none;html=1;exitX=0;exitY=0.5;exitDx=0;exitDy=0;entryX=1;entryY=0.5;entryDx=0;entryDy=0;fontFamily=Courier New;endArrow=none;endFill=0;" parent="174" source="52" target="45" edge="1">
                    <mxGeometry relative="1" as="geometry"/>
                </mxCell>
                <mxCell id="52" value="&lt;font face=&quot;Courier New&quot;&gt;answer_b&lt;/font&gt;" style="ellipse;whiteSpace=wrap;html=1;" parent="174" vertex="1">
                    <mxGeometry x="670" y="265" width="120" height="50" as="geometry"/>
                </mxCell>
                <mxCell id="67" style="edgeStyle=none;html=1;exitX=0.5;exitY=0;exitDx=0;exitDy=0;entryX=1;entryY=0.75;entryDx=0;entryDy=0;fontFamily=Courier New;endArrow=none;endFill=0;" parent="174" source="54" target="45" edge="1">
                    <mxGeometry relative="1" as="geometry"/>
                </mxCell>
                <mxCell id="54" value="&lt;font face=&quot;Courier New&quot;&gt;answer_c&lt;/font&gt;" style="ellipse;whiteSpace=wrap;html=1;" parent="174" vertex="1">
                    <mxGeometry x="600" y="340" width="120" height="50" as="geometry"/>
                </mxCell>
                <mxCell id="68" style="edgeStyle=none;html=1;exitX=0.5;exitY=0;exitDx=0;exitDy=0;fontFamily=Courier New;endArrow=none;endFill=0;entryX=1;entryY=1;entryDx=0;entryDy=0;" parent="174" source="55" target="45" edge="1">
                    <mxGeometry relative="1" as="geometry">
                        <mxPoint x="610" y="250" as="targetPoint"/>
                    </mxGeometry>
                </mxCell>
                <mxCell id="55" value="&lt;font face=&quot;Courier New&quot;&gt;answer_d&lt;/font&gt;" style="ellipse;whiteSpace=wrap;html=1;" parent="174" vertex="1">
                    <mxGeometry x="490" y="380" width="120" height="50" as="geometry"/>
                </mxCell>
                <mxCell id="69" style="edgeStyle=none;html=1;exitX=0.5;exitY=0;exitDx=0;exitDy=0;entryX=0.75;entryY=1;entryDx=0;entryDy=0;fontFamily=Courier New;endArrow=none;endFill=0;" parent="174" source="57" target="45" edge="1">
                    <mxGeometry relative="1" as="geometry"/>
                </mxCell>
                <mxCell id="57" value="&lt;font face=&quot;Courier New&quot;&gt;video_timestamp&lt;/font&gt;" style="ellipse;whiteSpace=wrap;html=1;" parent="174" vertex="1">
                    <mxGeometry x="395" y="330" width="120" height="50" as="geometry"/>
                </mxCell>
                <mxCell id="70" style="edgeStyle=none;html=1;exitX=1;exitY=1;exitDx=0;exitDy=0;entryX=0;entryY=0.25;entryDx=0;entryDy=0;fontFamily=Courier New;endArrow=none;endFill=0;" parent="174" source="58" target="45" edge="1">
                    <mxGeometry relative="1" as="geometry"/>
                </mxCell>
                <mxCell id="58" value="&lt;font face=&quot;Courier New&quot;&gt;answer_pilgan&lt;/font&gt;" style="ellipse;whiteSpace=wrap;html=1;" parent="174" vertex="1">
                    <mxGeometry x="70" y="30" width="120" height="50" as="geometry"/>
                </mxCell>
                <mxCell id="71" style="edgeStyle=none;html=1;exitX=1;exitY=1;exitDx=0;exitDy=0;entryX=0;entryY=0.5;entryDx=0;entryDy=0;fontFamily=Courier New;endArrow=none;endFill=0;" parent="174" source="59" target="45" edge="1">
                    <mxGeometry relative="1" as="geometry"/>
                </mxCell>
                <mxCell id="59" value="&lt;font face=&quot;Courier New&quot;&gt;answer_essay&lt;/font&gt;" style="ellipse;whiteSpace=wrap;html=1;" parent="174" vertex="1">
                    <mxGeometry y="100" width="120" height="50" as="geometry"/>
                </mxCell>
                <mxCell id="156" value="" style="group" parent="174" vertex="1" connectable="0">
                    <mxGeometry x="-120" y="180" width="451" height="160" as="geometry"/>
                </mxCell>
                <mxCell id="99" value="v_discussion" style="rounded=0;whiteSpace=wrap;html=1;fontFamily=Courier New;" parent="156" vertex="1">
                    <mxGeometry x="175" y="100" width="120" height="60" as="geometry"/>
                </mxCell>
                <mxCell id="153" style="edgeStyle=none;html=1;exitX=0;exitY=0.5;exitDx=0;exitDy=0;entryX=1;entryY=0.25;entryDx=0;entryDy=0;fontFamily=Courier New;endArrow=none;endFill=0;" parent="156" source="100" target="99" edge="1">
                    <mxGeometry relative="1" as="geometry"/>
                </mxCell>
                <mxCell id="100" value="&lt;font face=&quot;Courier New&quot;&gt;&lt;b&gt;id&lt;/b&gt;&lt;/font&gt;" style="ellipse;whiteSpace=wrap;html=1;fontStyle=4" parent="156" vertex="1">
                    <mxGeometry x="331" y="90" width="120" height="50" as="geometry"/>
                </mxCell>
                <mxCell id="149" style="html=1;exitX=1;exitY=0.5;exitDx=0;exitDy=0;entryX=0;entryY=0.25;entryDx=0;entryDy=0;fontFamily=Courier New;endArrow=none;endFill=0;" parent="156" source="101" target="99" edge="1">
                    <mxGeometry relative="1" as="geometry"/>
                </mxCell>
                <mxCell id="101" value="&lt;font face=&quot;Courier New&quot;&gt;&lt;b&gt;author&lt;/b&gt;&lt;/font&gt;" style="ellipse;whiteSpace=wrap;html=1;fontStyle=4" parent="156" vertex="1">
                    <mxGeometry y="56" width="120" height="50" as="geometry"/>
                </mxCell>
                <mxCell id="150" style="edgeStyle=none;html=1;exitX=1;exitY=1;exitDx=0;exitDy=0;entryX=0.25;entryY=0;entryDx=0;entryDy=0;fontFamily=Courier New;endArrow=none;endFill=0;" parent="156" source="102" target="99" edge="1">
                    <mxGeometry relative="1" as="geometry"/>
                </mxCell>
                <mxCell id="102" value="&lt;font face=&quot;Courier New&quot;&gt;message&lt;/font&gt;" style="ellipse;whiteSpace=wrap;html=1;" parent="156" vertex="1">
                    <mxGeometry x="85" y="10" width="120" height="50" as="geometry"/>
                </mxCell>
                <mxCell id="151" style="edgeStyle=none;html=1;exitX=0.5;exitY=1;exitDx=0;exitDy=0;entryX=0.5;entryY=0;entryDx=0;entryDy=0;fontFamily=Courier New;endArrow=none;endFill=0;" parent="156" source="103" target="99" edge="1">
                    <mxGeometry relative="1" as="geometry"/>
                </mxCell>
                <mxCell id="103" value="&lt;font face=&quot;Courier New&quot;&gt;updated_time&lt;/font&gt;" style="ellipse;whiteSpace=wrap;html=1;" parent="156" vertex="1">
                    <mxGeometry x="215" width="120" height="50" as="geometry"/>
                </mxCell>
                <mxCell id="152" style="edgeStyle=none;html=1;exitX=0;exitY=1;exitDx=0;exitDy=0;entryX=0.75;entryY=0;entryDx=0;entryDy=0;fontFamily=Courier New;endArrow=none;endFill=0;" parent="156" source="104" target="99" edge="1">
                    <mxGeometry relative="1" as="geometry"/>
                </mxCell>
                <mxCell id="104" value="&lt;font face=&quot;Courier New&quot;&gt;created_time&lt;/font&gt;" style="ellipse;whiteSpace=wrap;html=1;" parent="156" vertex="1">
                    <mxGeometry x="331" y="29" width="120" height="50" as="geometry"/>
                </mxCell>
                <mxCell id="175" style="edgeStyle=orthogonalEdgeStyle;html=1;exitX=0.25;exitY=1;exitDx=0;exitDy=0;entryX=0.25;entryY=1;entryDx=0;entryDy=0;fontFamily=Courier New;endArrow=ERmany;endFill=0;jumpStyle=line;strokeWidth=2;" parent="1" source="3" target="111" edge="1">
                    <mxGeometry relative="1" as="geometry">
                        <Array as="points">
                            <mxPoint x="230" y="650"/>
                            <mxPoint x="740" y="650"/>
                            <mxPoint x="740" y="980"/>
                            <mxPoint x="959" y="980"/>
                        </Array>
                    </mxGeometry>
                </mxCell>
                <mxCell id="176" style="edgeStyle=orthogonalEdgeStyle;html=1;exitX=1;exitY=1;exitDx=0;exitDy=0;entryX=0.25;entryY=1;entryDx=0;entryDy=0;fontFamily=Courier New;endArrow=ERmany;endFill=0;strokeWidth=2;" parent="1" source="3" target="138" edge="1">
                    <mxGeometry relative="1" as="geometry">
                        <Array as="points">
                            <mxPoint x="340" y="260"/>
                            <mxPoint x="340" y="510"/>
                            <mxPoint x="575" y="510"/>
                        </Array>
                    </mxGeometry>
                </mxCell>
                <mxCell id="177" style="edgeStyle=orthogonalEdgeStyle;html=1;exitX=1;exitY=0.75;exitDx=0;exitDy=0;entryX=0;entryY=0.5;entryDx=0;entryDy=0;fontFamily=Courier New;endArrow=ERmany;endFill=0;strokeWidth=2;" parent="1" source="3" target="99" edge="1">
                    <mxGeometry relative="1" as="geometry">
                        <Array as="points">
                            <mxPoint x="360" y="245"/>
                            <mxPoint x="360" y="280"/>
                            <mxPoint x="690" y="280"/>
                            <mxPoint x="690" y="320"/>
                        </Array>
                    </mxGeometry>
                </mxCell>
                <mxCell id="178" style="edgeStyle=orthogonalEdgeStyle;html=1;exitX=0.5;exitY=0;exitDx=0;exitDy=0;entryX=0;entryY=0.25;entryDx=0;entryDy=0;fontFamily=Courier New;endArrow=ERmany;endFill=0;jumpStyle=line;strokeWidth=2;startArrow=ERmany;startFill=0;" parent="1" source="122" target="26" edge="1">
                    <mxGeometry relative="1" as="geometry"/>
                </mxCell>
                <mxCell id="179" style="edgeStyle=orthogonalEdgeStyle;jumpStyle=line;html=1;exitX=0.5;exitY=1;exitDx=0;exitDy=0;entryX=0.25;entryY=0;entryDx=0;entryDy=0;fontFamily=Courier New;endArrow=ERmany;endFill=0;strokeWidth=2;" parent="1" source="3" target="122" edge="1">
                    <mxGeometry relative="1" as="geometry">
                        <Array as="points">
                            <mxPoint x="260" y="620"/>
                            <mxPoint x="675" y="620"/>
                        </Array>
                    </mxGeometry>
                </mxCell>
                <mxCell id="180" style="edgeStyle=orthogonalEdgeStyle;jumpStyle=line;html=1;exitX=0.75;exitY=1;exitDx=0;exitDy=0;entryX=0;entryY=0;entryDx=0;entryDy=0;fontFamily=Courier New;endArrow=ERmany;endFill=0;strokeWidth=2;" parent="1" source="3" target="26" edge="1">
                    <mxGeometry relative="1" as="geometry">
                        <Array as="points">
                            <mxPoint x="290" y="590"/>
                            <mxPoint x="670" y="590"/>
                            <mxPoint x="670" y="535"/>
                        </Array>
                    </mxGeometry>
                </mxCell>
                <mxCell id="181" style="edgeStyle=orthogonalEdgeStyle;jumpStyle=line;html=1;exitX=0.5;exitY=0;exitDx=0;exitDy=0;entryX=0;entryY=0;entryDx=0;entryDy=0;fontFamily=Courier New;endArrow=ERmany;endFill=0;strokeWidth=2;startArrow=ERmany;startFill=0;" parent="1" source="73" target="26" edge="1">
                    <mxGeometry relative="1" as="geometry">
                        <Array as="points">
                            <mxPoint x="314" y="535"/>
                            <mxPoint x="600" y="535"/>
                            <mxPoint x="600" y="480"/>
                            <mxPoint x="1000" y="480"/>
                        </Array>
                    </mxGeometry>
                </mxCell>
                <mxCell id="182" style="edgeStyle=orthogonalEdgeStyle;jumpStyle=line;html=1;exitX=0;exitY=0;exitDx=0;exitDy=0;entryX=0.75;entryY=0;entryDx=0;entryDy=0;fontFamily=Courier New;endArrow=none;endFill=0;strokeWidth=2;startArrow=ERmany;startFill=0;" parent="1" source="122" target="73" edge="1">
                    <mxGeometry relative="1" as="geometry">
                        <Array as="points">
                            <mxPoint x="645" y="710"/>
                            <mxPoint x="344" y="710"/>
                        </Array>
                    </mxGeometry>
                </mxCell>
                <mxCell id="183" value="" style="group" parent="1" vertex="1" connectable="0">
                    <mxGeometry x="14" y="670" width="606" height="375" as="geometry"/>
                </mxCell>
                <mxCell id="73" value="classes" style="rounded=0;whiteSpace=wrap;html=1;fontFamily=Courier New;" parent="183" vertex="1">
                    <mxGeometry x="240" y="135" width="120" height="60" as="geometry"/>
                </mxCell>
                <mxCell id="83" style="edgeStyle=none;html=1;exitX=1;exitY=0.5;exitDx=0;exitDy=0;entryX=0;entryY=0.5;entryDx=0;entryDy=0;fontFamily=Courier New;endArrow=none;endFill=0;" parent="183" source="74" target="73" edge="1">
                    <mxGeometry relative="1" as="geometry"/>
                </mxCell>
                <mxCell id="74" value="&lt;font face=&quot;Courier New&quot;&gt;&lt;b&gt;id&lt;/b&gt;&lt;/font&gt;" style="ellipse;whiteSpace=wrap;html=1;fontStyle=4" parent="183" vertex="1">
                    <mxGeometry y="125" width="120" height="50" as="geometry"/>
                </mxCell>
                <mxCell id="84" value="" style="edgeStyle=none;html=1;fontFamily=Courier New;endArrow=none;endFill=0;" parent="183" source="75" target="73" edge="1">
                    <mxGeometry relative="1" as="geometry"/>
                </mxCell>
                <mxCell id="75" value="&lt;font face=&quot;Courier New&quot;&gt;&lt;b&gt;owner&lt;/b&gt;&lt;/font&gt;" style="ellipse;whiteSpace=wrap;html=1;fontStyle=4" parent="183" vertex="1">
                    <mxGeometry x="40" y="185" width="120" height="50" as="geometry"/>
                </mxCell>
                <mxCell id="85" style="edgeStyle=none;html=1;exitX=1;exitY=0;exitDx=0;exitDy=0;entryX=0;entryY=1;entryDx=0;entryDy=0;fontFamily=Courier New;endArrow=none;endFill=0;" parent="183" source="76" target="73" edge="1">
                    <mxGeometry relative="1" as="geometry"/>
                </mxCell>
                <mxCell id="76" value="&lt;font face=&quot;Courier New&quot;&gt;&lt;b&gt;learner&lt;/b&gt;&lt;/font&gt;" style="ellipse;whiteSpace=wrap;html=1;fontStyle=4" parent="183" vertex="1">
                    <mxGeometry x="80" y="245" width="120" height="50" as="geometry"/>
                </mxCell>
                <mxCell id="86" style="edgeStyle=none;html=1;exitX=0.5;exitY=0;exitDx=0;exitDy=0;entryX=0.25;entryY=1;entryDx=0;entryDy=0;fontFamily=Courier New;endArrow=none;endFill=0;" parent="183" source="77" target="73" edge="1">
                    <mxGeometry relative="1" as="geometry"/>
                </mxCell>
                <mxCell id="77" value="&lt;font face=&quot;Courier New&quot;&gt;class_code&lt;/font&gt;" style="ellipse;whiteSpace=wrap;html=1;" parent="183" vertex="1">
                    <mxGeometry x="160" y="295" width="120" height="50" as="geometry"/>
                </mxCell>
                <mxCell id="87" style="edgeStyle=none;html=1;exitX=0.5;exitY=0;exitDx=0;exitDy=0;entryX=0.5;entryY=1;entryDx=0;entryDy=0;fontFamily=Courier New;endArrow=none;endFill=0;" parent="183" source="78" target="73" edge="1">
                    <mxGeometry relative="1" as="geometry"/>
                </mxCell>
                <mxCell id="78" value="&lt;font face=&quot;Courier New&quot;&gt;nama&lt;/font&gt;" style="ellipse;whiteSpace=wrap;html=1;" parent="183" vertex="1">
                    <mxGeometry x="275" y="325" width="120" height="50" as="geometry"/>
                </mxCell>
                <mxCell id="88" style="edgeStyle=none;html=1;exitX=0;exitY=0;exitDx=0;exitDy=0;entryX=0.75;entryY=1;entryDx=0;entryDy=0;fontFamily=Courier New;endArrow=none;endFill=0;" parent="183" source="79" target="73" edge="1">
                    <mxGeometry relative="1" as="geometry"/>
                </mxCell>
                <mxCell id="79" value="&lt;font face=&quot;Courier New&quot;&gt;desc&lt;/font&gt;" style="ellipse;whiteSpace=wrap;html=1;" parent="183" vertex="1">
                    <mxGeometry x="390" y="295" width="120" height="50" as="geometry"/>
                </mxCell>
                <mxCell id="89" style="edgeStyle=none;html=1;exitX=0;exitY=0.5;exitDx=0;exitDy=0;entryX=1;entryY=1;entryDx=0;entryDy=0;fontFamily=Courier New;endArrow=none;endFill=0;" parent="183" source="80" target="73" edge="1">
                    <mxGeometry relative="1" as="geometry"/>
                </mxCell>
                <mxCell id="80" value="&lt;font face=&quot;Courier New&quot;&gt;room&lt;/font&gt;" style="ellipse;whiteSpace=wrap;html=1;" parent="183" vertex="1">
                    <mxGeometry x="460" y="245" width="120" height="50" as="geometry"/>
                </mxCell>
                <mxCell id="90" style="edgeStyle=none;html=1;exitX=0;exitY=0.5;exitDx=0;exitDy=0;entryX=1;entryY=0.75;entryDx=0;entryDy=0;fontFamily=Courier New;endArrow=none;endFill=0;" parent="183" source="81" target="73" edge="1">
                    <mxGeometry relative="1" as="geometry"/>
                </mxCell>
                <mxCell id="81" value="&lt;font face=&quot;Courier New&quot;&gt;subjects&lt;/font&gt;" style="ellipse;whiteSpace=wrap;html=1;" parent="183" vertex="1">
                    <mxGeometry x="480" y="185" width="120" height="50" as="geometry"/>
                </mxCell>
                <mxCell id="91" style="edgeStyle=none;html=1;exitX=0;exitY=0.5;exitDx=0;exitDy=0;entryX=1;entryY=0.5;entryDx=0;entryDy=0;fontFamily=Courier New;endArrow=none;endFill=0;" parent="183" source="82" target="73" edge="1">
                    <mxGeometry relative="1" as="geometry"/>
                </mxCell>
                <mxCell id="82" value="&lt;font face=&quot;Courier New&quot;&gt;&lt;u&gt;&lt;b&gt;posts&lt;/b&gt;&lt;/u&gt;&lt;/font&gt;" style="ellipse;whiteSpace=wrap;html=1;" parent="183" vertex="1">
                    <mxGeometry x="486" y="125" width="120" height="50" as="geometry"/>
                </mxCell>
                <mxCell id="92" value="&lt;font face=&quot;Courier New&quot;&gt;background_image_index&lt;/font&gt;" style="ellipse;whiteSpace=wrap;html=1;" parent="183" vertex="1">
                    <mxGeometry x="416" y="60" width="190" height="50" as="geometry"/>
                </mxCell>
                <mxCell id="98" style="edgeStyle=none;html=1;exitX=1;exitY=0.25;exitDx=0;exitDy=0;entryX=0;entryY=1;entryDx=0;entryDy=0;fontFamily=Courier New;endArrow=none;endFill=0;" parent="183" source="73" target="92" edge="1">
                    <mxGeometry relative="1" as="geometry"/>
                </mxCell>
                <mxCell id="96" style="edgeStyle=none;html=1;exitX=1;exitY=1;exitDx=0;exitDy=0;entryX=0;entryY=0.25;entryDx=0;entryDy=0;fontFamily=Courier New;endArrow=none;endFill=0;" parent="183" source="94" target="73" edge="1">
                    <mxGeometry relative="1" as="geometry"/>
                </mxCell>
                <mxCell id="94" value="&lt;font face=&quot;Courier New&quot;&gt;created_time&lt;/font&gt;" style="ellipse;whiteSpace=wrap;html=1;fontStyle=0" parent="183" vertex="1">
                    <mxGeometry y="60" width="120" height="50" as="geometry"/>
                </mxCell>
                <mxCell id="97" style="edgeStyle=none;html=1;exitX=1;exitY=1;exitDx=0;exitDy=0;entryX=0;entryY=0;entryDx=0;entryDy=0;fontFamily=Courier New;endArrow=none;endFill=0;" parent="183" source="95" target="73" edge="1">
                    <mxGeometry relative="1" as="geometry"/>
                </mxCell>
                <mxCell id="95" value="&lt;font face=&quot;Courier New&quot;&gt;updated_time&lt;/font&gt;" style="ellipse;whiteSpace=wrap;html=1;fontStyle=0" parent="183" vertex="1">
                    <mxGeometry x="40" width="120" height="50" as="geometry"/>
                </mxCell>
            </root>
        </mxGraphModel>
    </diagram>
</mxfile>